<svg width="15" height="12" viewBox="0 0 15 12" fill="none" xmlns="http://www.w3.org/2000/svg">
  <path d="M5.2281 8.81344C5.67556 6.34567 6.29084 5.69935 8.64005 5.2293C8.91972 5.17055 9.08752 4.93552 9.08752 4.64174C9.08752 4.34796 8.91972 4.11294 8.64005 4.05418C6.29084 3.58413 5.67556 2.93781 5.2281 0.47005C5.17216 0.176269 4.94843 0 4.66876 0C4.38909 0 4.16536 0.176269 4.10942 0.47005C3.66195 2.93781 3.04668 3.58413 0.697469 4.05418C0.473735 4.11294 0.25 4.34796 0.25 4.64174C0.25 4.93552 0.417801 5.17055 0.697469 5.2293C3.04668 5.69935 3.66195 6.34567 4.10942 8.81344C4.16536 9.10722 4.38909 9.28348 4.66876 9.28348C4.94843 9.28348 5.17216 9.04846 5.2281 8.81344Z" fill="#AA9442"></path>
  <path d="M13.8638 8.55158C12.5121 8.24731 12.2224 7.94304 11.9328 6.5231C11.8845 6.26954 11.6914 6.11741 11.45 6.11741C11.2086 6.11741 11.0155 6.26954 10.9672 6.5231C10.6776 7.94304 10.3879 8.24731 9.03621 8.55158C8.79483 8.60229 8.65 8.80514 8.65 9.0587C8.65 9.31226 8.79483 9.51511 9.03621 9.56582C10.3879 9.8701 10.6776 10.1744 10.9672 11.5943C11.0155 11.8479 11.2086 12 11.45 12C11.6914 12 11.8845 11.8479 11.9328 11.5943C12.2224 10.1744 12.5121 9.8701 13.8638 9.56582C14.1052 9.51511 14.25 9.31226 14.25 9.0587C14.25 8.80514 14.0569 8.60229 13.8638 8.55158Z" fill="#AA9442"></path>
</svg>