<svg class="silver-active-toggle" width="16" height="18" viewBox="0 0 16 18" fill="none" xmlns="http://www.w3.org/2000/svg">
<path d="M8.61602 4.125C8.23112 4.79167 7.26887 4.79167 6.88397 4.125L5.58493 1.875C5.20003 1.20833 5.68115 0.375 6.45096 0.375L9.04903 0.375C9.81883 0.375 10.3 1.20833 9.91506 1.875L8.61602 4.125Z" fill="url(#paint0_linear_3746_8555)"></path>
<mask id="path-2-inside-1_3746_8555" fill="white">
<path d="M9.32225 3.72349C9.4419 3.23636 9.93659 2.9333 10.4057 3.1109C11.8183 3.64573 13.0438 4.59781 13.9127 5.85053C14.955 7.35326 15.4123 9.18506 15.1986 11.0014C14.9849 12.8177 14.115 14.4933 12.7523 15.7131C11.3897 16.9329 9.62835 17.6128 7.79956 17.6248C5.97077 17.6369 4.20058 16.9804 2.82196 15.7787C1.44334 14.577 0.55129 12.913 0.313609 11.0997C0.0759278 9.28641 0.508993 7.44873 1.53135 5.93234C2.3836 4.66825 3.59641 3.70007 5.00183 3.14661C5.46855 2.96282 5.96721 3.25932 6.09328 3.74482C6.21935 4.23033 5.92363 4.71957 5.46438 4.92129C4.48565 5.35118 3.64191 6.05128 3.03748 6.94779C2.26274 8.09691 1.93456 9.48951 2.11467 10.8637C2.29479 12.2378 2.97079 13.4988 4.01551 14.4094C5.06024 15.32 6.40169 15.8176 7.78756 15.8084C9.17342 15.7992 10.5082 15.284 11.5408 14.3597C12.5734 13.4353 13.2327 12.1655 13.3946 10.7891C13.5565 9.41271 13.21 8.02457 12.4201 6.88579C11.8039 5.99735 10.951 5.30845 9.96665 4.89154C9.50477 4.6959 9.20261 4.21061 9.32225 3.72349Z"></path>
</mask>
<path d="M9.32225 3.72349C9.4419 3.23636 9.93659 2.9333 10.4057 3.1109C11.8183 3.64573 13.0438 4.59781 13.9127 5.85053C14.955 7.35326 15.4123 9.18506 15.1986 11.0014C14.9849 12.8177 14.115 14.4933 12.7523 15.7131C11.3897 16.9329 9.62835 17.6128 7.79956 17.6248C5.97077 17.6369 4.20058 16.9804 2.82196 15.7787C1.44334 14.577 0.55129 12.913 0.313609 11.0997C0.0759278 9.28641 0.508993 7.44873 1.53135 5.93234C2.3836 4.66825 3.59641 3.70007 5.00183 3.14661C5.46855 2.96282 5.96721 3.25932 6.09328 3.74482C6.21935 4.23033 5.92363 4.71957 5.46438 4.92129C4.48565 5.35118 3.64191 6.05128 3.03748 6.94779C2.26274 8.09691 1.93456 9.48951 2.11467 10.8637C2.29479 12.2378 2.97079 13.4988 4.01551 14.4094C5.06024 15.32 6.40169 15.8176 7.78756 15.8084C9.17342 15.7992 10.5082 15.284 11.5408 14.3597C12.5734 13.4353 13.2327 12.1655 13.3946 10.7891C13.5565 9.41271 13.21 8.02457 12.4201 6.88579C11.8039 5.99735 10.951 5.30845 9.96665 4.89154C9.50477 4.6959 9.20261 4.21061 9.32225 3.72349Z" fill="#D9D9D9"></path>
<path d="M9.32225 3.72349C9.4419 3.23636 9.93659 2.9333 10.4057 3.1109C11.8183 3.64573 13.0438 4.59781 13.9127 5.85053C14.955 7.35326 15.4123 9.18506 15.1986 11.0014C14.9849 12.8177 14.115 14.4933 12.7523 15.7131C11.3897 16.9329 9.62835 17.6128 7.79956 17.6248C5.97077 17.6369 4.20058 16.9804 2.82196 15.7787C1.44334 14.577 0.55129 12.913 0.313609 11.0997C0.0759278 9.28641 0.508993 7.44873 1.53135 5.93234C2.3836 4.66825 3.59641 3.70007 5.00183 3.14661C5.46855 2.96282 5.96721 3.25932 6.09328 3.74482C6.21935 4.23033 5.92363 4.71957 5.46438 4.92129C4.48565 5.35118 3.64191 6.05128 3.03748 6.94779C2.26274 8.09691 1.93456 9.48951 2.11467 10.8637C2.29479 12.2378 2.97079 13.4988 4.01551 14.4094C5.06024 15.32 6.40169 15.8176 7.78756 15.8084C9.17342 15.7992 10.5082 15.284 11.5408 14.3597C12.5734 13.4353 13.2327 12.1655 13.3946 10.7891C13.5565 9.41271 13.21 8.02457 12.4201 6.88579C11.8039 5.99735 10.951 5.30845 9.96665 4.89154C9.50477 4.6959 9.20261 4.21061 9.32225 3.72349Z" fill="white"></path>
<path d="M9.32225 3.72349C9.4419 3.23636 9.93659 2.9333 10.4057 3.1109C11.8183 3.64573 13.0438 4.59781 13.9127 5.85053C14.955 7.35326 15.4123 9.18506 15.1986 11.0014C14.9849 12.8177 14.115 14.4933 12.7523 15.7131C11.3897 16.9329 9.62835 17.6128 7.79956 17.6248C5.97077 17.6369 4.20058 16.9804 2.82196 15.7787C1.44334 14.577 0.55129 12.913 0.313609 11.0997C0.0759278 9.28641 0.508993 7.44873 1.53135 5.93234C2.3836 4.66825 3.59641 3.70007 5.00183 3.14661C5.46855 2.96282 5.96721 3.25932 6.09328 3.74482C6.21935 4.23033 5.92363 4.71957 5.46438 4.92129C4.48565 5.35118 3.64191 6.05128 3.03748 6.94779C2.26274 8.09691 1.93456 9.48951 2.11467 10.8637C2.29479 12.2378 2.97079 13.4988 4.01551 14.4094C5.06024 15.32 6.40169 15.8176 7.78756 15.8084C9.17342 15.7992 10.5082 15.284 11.5408 14.3597C12.5734 13.4353 13.2327 12.1655 13.3946 10.7891C13.5565 9.41271 13.21 8.02457 12.4201 6.88579C11.8039 5.99735 10.951 5.30845 9.96665 4.89154C9.50477 4.6959 9.20261 4.21061 9.32225 3.72349Z" stroke="url(#paint1_linear_3746_8555)" mask="url(#path-2-inside-1_3746_8555)"></path>
<defs>
<linearGradient id="paint0_linear_3746_8555" x1="5.00024" y1="-0.375" x2="4.76432" y2="3.39096" gradientUnits="userSpaceOnUse">
<stop stop-color="#00D1B5"></stop>
<stop offset="1" stop-color="#7F6BFF"></stop>
</linearGradient>
<linearGradient id="paint1_linear_3746_8555" x1="13" y1="5.125" x2="15.1192" y2="13.78" gradientUnits="userSpaceOnUse">
<stop stop-color="#F8F8F8"></stop>
<stop offset="0.53" stop-color="white"></stop>
<stop offset="1" stop-color="#C0C0C0"></stop>
</linearGradient>
</defs>
</svg>